Patient4_TMGait_0pt7_01_right_23_EMG.mot
version=1
nRows=36
nColumns=33
inDegrees=no
endheader
time	1LAddLong	2LGlutMax	3LGlutMed	4LIliopsoas	5LSemiMemb	6LBicFemLong	7LRecFem	8LVastMed	9LVastLat	10LGasMed	11LTibAnt	12lTibPost	13LPeroneusLong	14LSol	15LExtDigLong	16LFlexDigLong	17RAddLong	18RGlutMax	19RGlutMed	20RIliopsoas	21RSemiMemb	22RBicFemLong	23RRecFem	24RVastMed	25RVastLat	26RGasMed	27RTibAnt	28RTibPost	29RPeroneusLong	30RSol	31RExtDigLong	32RFlexDigLong
25.9	-0.002441	-0.085449	-0.10925	-0.021057	-0.06424	-0.20783	0.1149	0.014191	0.002594	0.042114	0.032196	0.018463	-0.024719	-0.11231	0.045776	0.008392	-0.074158	-0.32242	0.068817	-0.081177	0.11032	0.38589	-0.12726	-0.039978	0.008392	0.002289	0.15274	-0.000458	-0.20218	-0.15762	-0.002136	-0.00412
25.901	0.006104	-0.11322	0.02243	0.009003	-0.081329	-0.26138	0.17502	0.016785	-0.1297	0.039673	-0.014496	0.015717	0.007782	-0.087433	0.039063	0.001373	-0.006561	-0.26108	0.1561	-0.16647	0.10117	0.37735	-0.13489	-0.022888	-0.009766	-0.004578	0.17883	-0.007477	-0.51468	-0.11032	-0.00412	0.003815
25.902	0.003052	-0.077362	0.15717	0.005035	0.045776	-0.22339	0.18601	0.00351	-0.23025	0.054626	-0.014801	0.016174	-0.028381	-0.036621	0.054321	0.002747	0.034637	-0.26382	-0.080872	-0.28336	0.094604	0.37109	0.13107	0.089874	0.000916	0.001373	0.20172	0.001373	0.013428	-0.065155	-0.003967	-0.000763
25.903	0.009766	-0.093231	0.11383	-0.017242	0.066376	-0.098572	0.20187	0.00824	-0.20691	0.046692	-0.016937	0.024567	-0.082855	0.005035	0.003815	0.001526	0.030518	-0.23071	-0.10727	-0.33203	0.098114	0.3775	0.53619	0.20447	0.012054	-0.003204	0.20966	-0.003204	0.1619	-0.014801	-0.002289	0.000916
25.904	0.009613	-0.065765	0.045166	-0.009766	0.042725	0.078583	0.15427	0.02182	-0.17105	0.004272	0.03006	0.012817	-0.053864	-0.012512	0.023956	-0.002441	0.029297	-0.26993	-0.11078	-0.29556	0.072174	0.37933	0.67734	0.1471	0.021362	-0.001526	0.29892	-0.008087	-0.51621	0.028229	-0.001068	-0.003815
25.905	0.007782	-0.065918	0.071564	0.000153	0.024261	0.086212	0.24368	0.019836	-0.15671	-0.019836	0.048828	0.018616	-0.048065	-0.010529	0.08255	-1.3419	0.015869	-0.24277	-0.007782	-0.18021	0.06958	0.36896	0.6691	0.095673	0.030365	-0.00412	0.43091	-0.005188	-0.60928	0.010834	-0.005341	-0.01236
25.906	-0.010529	-0.093842	0.040894	0.000153	0.035095	0.068207	0.27344	0.000916	-0.091248	-0.009766	0.073242	0.018921	-0.003052	0.024414	0.068207	0.1329	0.007477	-0.24399	0.045776	0.020447	0.082397	0.37033	0.59479	0.056152	0.015869	-0.000458	0.29358	-0.00473	0.56702	-0.10986	-0.010986	-0.001831
25.907	-0.003967	-0.057831	-0.011444	-0.006561	0.029602	0.023041	0.24963	-0.001678	-0.097198	0.048218	0.046692	0.01297	-0.048065	0.046997	0.028076	0.82047	-0.005188	-0.22995	-0.047302	0.22675	0.064392	0.34912	0.57526	0.053253	0.022888	0.006714	0.26398	-0.002594	0.57327	-0.1471	-0.007324	-0.005341
25.908	0.016022	-0.095978	-0.015869	0.015869	0.012512	0.003967	0.19028	0.001984	-0.10712	0.10407	-0.024719	0.0177	-0.12192	0.036926	-0.049133	-0.42038	-0.024872	-0.2536	-0.19806	0.21637	0.065002	0.35721	0.62378	0.091095	0.015106	0.006561	0.17212	-0.003052	-0.32089	-0.17288	-0.003357	-0.001678
25.909	0.007172	-0.077209	-0.009003	-0.010834	-0.005035	0.007477	0.057678	0.011444	-0.063019	0.12344	-0.029297	0.009003	-0.0737	0.082092	-0.045624	-0.10544	-0.027924	-0.19821	-0.1239	0.008392	0.053711	0.31143	0.46127	0.10712	-0.024109	0.000458	-0.006866	-0.006866	-0.28519	-0.072937	-0.000458	-0.006409
25.91	0.011139	-0.045624	-0.046997	-0.006256	0.01358	-0.044861	-0.007477	-0.002289	-0.051117	0.15808	0.034027	0.018158	-0.074768	0.1059	-0.018616	0.65002	-0.041809	-0.2356	0.31204	-0.064545	0.035706	0.30914	0.082855	0.099792	-0.043335	-0.00473	-0.26977	-0.009308	0.053101	-0.020142	-0.004425	-0.005798
25.911	0.004578	-0.051575	-0.05127	-0.016174	-0.02243	0.021973	-0.097809	0.003052	0.027618	0.15396	0.075531	0.009918	0.000153	0.095215	-0.002441	0.11719	-0.054321	-0.23697	0.11185	-0.003815	0.040131	0.26688	-0.22903	0.00351	-0.066681	-0.010376	-0.51041	-0.00061	0.22247	0.020905	-0.004578	-0.021362
25.912	0.004272	-0.068054	-0.066376	0.004272	-0.033569	0.029144	-0.086823	0.019379	0.019684	0.048523	0.065308	0.010834	0.084076	0.11627	0.003967	0.005951	-0.061493	-0.24612	0.15564	0.001831	0.031281	0.22003	-0.37811	-0.055084	-0.066986	-0.008392	-0.32059	-0.003357	0.04776	0.032501	0.000763	-0.004883
25.913	0.010071	-0.053558	-0.049438	0.024567	0.017548	-0.004578	-0.033112	0.00885	0.12512	-0.14999	0.008698	0.020599	0.089569	0.052948	-0.063629	0.02182	-0.041962	-0.21744	0.31174	-0.037384	0.010986	0.1886	-0.42053	-0.083771	-0.059662	-0.009613	-0.17639	0.001526	0.020905	0.031586	0.003815	-0.006256
25.914	0.011597	-0.032043	-0.02594	0.005951	0.06073	0.029297	-0.00824	0.012665	0.19684	-0.13367	-0.027008	0.009155	0.093079	-0.074768	0.001221	-0.045166	-0.019836	-0.19073	0.35233	-0.00473	0.00351	0.15701	-0.31952	-0.12009	-0.039673	-0.005951	-0.24231	-0.003815	0.056152	0.015564	-0.001526	-0.002136
25.915	-0.001831	0.016785	0.011902	-0.012512	0.056915	0.063629	0.035095	0.012665	0.15945	-0.028076	0.000763	0.002899	0.028076	-0.19211	-0.000763	-0.13886	-0.015259	-0.20783	0.21316	0.024872	0.001068	0.1564	-0.18372	-0.12131	0.000305	-0.01358	-0.19028	-0.00061	-0.030823	0.061035	-0.000916	-0.003204
25.916	-0.002594	-0.036621	-0.07309	-0.012054	0.02121	0.1001	-0.009918	0.002289	0.19455	0.014038	-0.00351	0.015869	-0.018921	-0.19653	0.033417	0.10559	-0.019531	-0.20798	0.016632	0.064697	0.012665	0.1564	-0.11398	-0.088501	-0.00946	-0.014648	-0.075073	-0.000916	-0.12192	0.031433	0.001068	-0.006866
25.917	-0.000458	-0.014191	-0.12253	-0.018005	0.010071	0.112	-0.06073	0.016785	0.21194	0.007324	0.039215	0.009613	-0.030365	-0.14236	0.077515	0.067596	-0.01236	-0.2005	0.1532	0.063629	0.009308	0.15579	-0.049286	-0.10178	-0.012207	-0.001221	0.089417	-0.003815	-0.081024	-0.039368	-0.004425	-0.001526
25.918	-0.000153	-0.000305	-0.047913	-0.00351	0.014038	0.064087	0.017853	0.015869	0.25864	-0.004425	0.059204	0.008698	-0.052032	-0.055847	0.061035	0.019836	-0.004578	-0.19943	0.088196	0.04425	0.009613	0.14252	-0.021973	-0.081482	-0.005341	-0.004883	0.19852	-0.002747	-0.1471	-0.056	0	-0.005188
25.919	-0.004883	-0.005035	-0.028229	0.005035	0.013885	0.069122	0.097961	0.00946	0.093994	0.002441	0.025177	0.016022	-0.05661	0.002594	0.011749	-0.001068	0.002441	-0.18051	-0.23926	-0.025482	0.010834	0.14084	-0.007629	-0.10773	-0.014038	-0.007782	0.089569	-0.002441	-0.22903	-0.032959	-0.002136	-0.001373
25.92	0.005035	0.031891	0.017853	0.003967	0.009766	0.068817	0.14084	0.004425	-0.099487	0.005188	-0.046234	0.006714	-0.055237	0.087128	-0.090942	-0.022583	-0.005798	-0.1889	-0.19272	-0.09903	0.004578	0.1091	-0.053406	-0.16708	-0.029297	-0.011597	-0.005646	0.000305	-0.1889	0.010223	-0.001526	-0.003662
25.921	0.000763	0.0383	0.060577	-0.022888	0.010529	0.055237	0.14328	0.012817	-0.20157	0.02533	-0.11948	-0.028992	-0.028687	0.034943	-0.12268	-0.028381	-0.011597	-0.21378	-0.081635	-0.14358	0.006104	0.095673	-0.090179	-0.1532	-0.025787	-0.007782	-0.13825	-0.002899	0.014191	0.006409	-0.003357	-0.003052
25.922	-0.074158	0.055084	0.021667	-0.007324	0.005646	-0.083313	0.177	0.000153	-0.086365	0.010071	-0.09552	-0.014191	-0.016937	0.039978	-0.07431	-0.021362	0.021667	-0.20172	0.052643	-0.055847	0.001068	0.093231	-0.082397	-0.11932	0.000153	-0.005798	-0.16174	-0.005951	0.4509	-0.052338	-0.001221	-0.001068
25.923	-0.043182	0.033569	-0.036774	-0.015564	-0.009918	0.002747	0.15518	-0.002136	-0.071259	0.009918	-0.023651	-0.014038	0.000153	0.052948	-0.015869	-0.024719	0.030975	-0.16159	0.00824	0.13565	-0.005035	0.070038	-0.061646	-0.13565	-0.022888	-0.005188	-0.093384	-0.002747	0.48752	-0.068665	-0.001678	-0.004425
25.924	-0.024872	0.012207	-0.017548	-0.001221	-0.04303	-0.016785	0.12924	0.000458	-0.026093	0.025635	0.079956	-0.013275	0.000916	0.016174	-0.028381	-0.012512	0.026855	-0.21347	0.034332	0.17914	-0.00061	0.066833	0.036011	-0.13046	-0.026703	-0.012207	0.11734	-0.007019	-0.003052	-0.043488	-0.00473	-0.013733
25.925	-0.022583	0.03952	0.074768	-0.01236	-0.073395	0.012512	0.11902	0.005188	-0.005341	0.028076	0.17334	-0.009003	-0.007172	0.000305	0.15274	-0.007019	-0.018616	-0.17487	0.077667	0.14908	-0.013275	0.049896	0.018463	-0.098572	-0.015717	-0.004578	0.31677	-0.004578	-0.23056	-0.091553	-0.003967	-0.013123
25.926	0.005035	0.020447	-0.018005	0.000305	-0.042267	0.11398	0.040588	0.015717	0.015564	-0.02243	-0.007935	-0.00473	0.024567	0.077057	-0.000916	-0.005341	-0.044556	-0.17685	0.091248	0.10635	-0.014038	0.030518	0.036926	-0.066986	-0.009766	-0.006256	0.30212	-0.003815	-0.004425	-0.06958	-0.001984	-0.017395
25.927	-0.001678	0.029755	-0.026093	-0.020905	0.11002	0.057526	0.001984	0.018158	0.047607	-0.028839	0.077057	-0.008698	-0.043793	0.091858	0.053711	-0.000458	-0.033264	-0.1857	0.071411	0.071259	0.016479	-0.011139	0.083618	-0.058136	-0.0177	-0.00412	0.14389	0.002289	0.18799	-0.072327	-0.001373	-0.007324
25.928	-0.007477	0.043488	-0.041351	-0.020447	0.044556	-0.048523	0.039063	0.007324	0.057831	-0.026093	0.012512	-0.003967	-0.014648	0.06134	-0.064392	-0.005798	-0.019073	-0.13397	0.059357	0.021973	0.032349	-0.005341	0.071716	-0.076904	-0.009918	-0.007324	0.06958	-0.005188	0.34882	-0.11124	0.001984	-0.013123
25.929	-0.00824	0.007935	-0.1593	-0.0177	-0.037079	-0.071869	0.067444	0.010529	0.037384	-0.040741	0.010681	-0.00412	0.046082	0.054169	-0.13458	-0.010376	-0.014954	-0.15823	0.045013	-0.052338	0.026398	-0.005646	0.04303	-0.037689	-0.019073	0.005188	0.095062	-0.005493	0.27573	-0.16647	-0.000305	-0.000763
25.93	-0.00824	0.023193	-0.17441	-0.006866	-0.11368	-0.1004	0.062256	0.015717	-0.015717	-0.024109	0.020752	-0.012054	0.04837	0.048828	-0.083923	-0.018311	0.010529	-0.14771	0.057831	-0.063629	-0.039978	0.020142	0.050049	-0.059662	-0.003357	0.006409	-0.05188	-0.00824	-0.16327	-0.10941	0.001831	0.000458
25.931	-0.003967	0.03418	0.11169	0.005493	-0.086823	-0.22446	0.098572	0.011444	-0.096436	-0.02594	0.051575	-0.007324	-0.037994	0.039673	-0.08667	-0.02243	0.014191	-0.1387	0.030975	-0.06897	-0.088501	0.008698	0.016327	-0.065918	0.007172	0.000305	0.080872	-0.001068	-0.22827	-0.10971	0.000916	0.003967
25.932	-0.002594	0.033722	0.067902	0.008545	-0.010071	-0.31357	0.088348	0.013275	-0.006409	-0.035858	0.050659	-0.006866	-0.068665	0.044098	-0.004272	-0.01297	0.01236	-0.16342	0.045929	0.005951	-0.027924	-0.019531	-0.030823	-0.085602	-0.015564	-0.006866	0.15091	0.00061	-0.50705	-0.093384	-0.000916	0.001373
25.933	0.004272	0.010986	0.11749	-0.003052	0.069275	-0.24063	0.087891	0.00412	-0.026245	0.007477	0.046539	-0.014648	-0.057831	0.056915	0.063629	0.001068	0.012665	-0.15533	0.027771	0.059814	0.002441	-0.034637	0.014954	-0.078125	-0.020599	-0.009766	0.063782	-0.001373	-0.071106	0.009308	-0.002747	0.006256
25.934	0.0177	-0.023651	0.16266	-0.01358	0.063019	-0.14099	0.07843	-0.003815	-0.023804	-0.055847	0.022583	-0.008087	0.012512	-0.025024	0.016174	0.020447	0.017853	-0.13519	0.035248	0.008545	0.018463	-0.046234	0.050812	-0.1152	-0.03067	-0.010071	-0.006866	-0.007019	0.024872	0.083008	-0.003357	0.002136
25.935	0.017548	-0.015564	0.11932	-0.014496	0.007019	-0.08667	0.054626	0.004883	-0.02243	0.15442	0.015717	-0.010834	0.021667	-0.12695	-0.011292	-0.19058	0.015259	-0.13443	0.027313	-0.000153	0.000458	-0.064545	-0.006409	-0.084534	-0.027313	-0.004578	-0.42038	-0.00885	-0.054169	0.06546	-0.005035	-0.000305
